<svg width="20" height="14" viewBox="0 0 20 14" fill="none" xmlns="http://www.w3.org/2000/svg">
<g clip-path="url(#clip0_1_368)">
<path d="M12.9412 1.5655e-06C11.6373 -0.00329803 10.3583 0.352923 9.24678 1.02888C8.13531 1.70483 7.23522 2.6739 6.64705 3.82784C6.58168 3.96497 6.57275 4.12197 6.62215 4.26553C6.67156 4.40909 6.77541 4.52792 6.91169 4.59682C7.04796 4.66572 7.20594 4.67927 7.35212 4.63459C7.4983 4.58991 7.62118 4.49052 7.6947 4.3575C8.29376 3.18832 9.27264 2.25343 10.4733 1.70374C11.674 1.15404 13.0265 1.02161 14.3124 1.32782C15.5983 1.63403 16.7427 2.36101 17.5607 3.39143C18.3788 4.42184 18.8229 5.69557 18.8213 7.00702C18.8197 8.31846 18.3725 9.59112 17.5519 10.6196C16.7313 11.648 15.5851 12.3722 14.2985 12.6753C13.0118 12.9784 11.6597 12.8427 10.4603 12.2901C9.261 11.7375 8.28442 10.8003 7.68823 9.62967C7.65494 9.55887 7.60766 9.49543 7.54918 9.44309C7.4907 9.39076 7.42222 9.35061 7.3478 9.32502C7.27338 9.29943 7.19453 9.28893 7.11593 9.29413C7.03734 9.29933 6.9606 9.32013 6.89026 9.3553C6.81993 9.39046 6.75743 9.43928 6.70648 9.49885C6.65553 9.55842 6.61717 9.62754 6.59366 9.70209C6.57016 9.77664 6.56199 9.85512 6.56964 9.93286C6.5773 10.0106 6.60062 10.086 6.63823 10.1547C7.20418 11.2664 8.05895 12.2082 9.11437 12.8831C10.1698 13.5579 11.3877 13.9414 12.6424 13.9938C13.897 14.0462 15.1431 13.7658 16.2521 13.1814C17.361 12.597 18.2927 11.7298 18.9509 10.6693C19.6092 9.60874 19.9702 8.39325 19.9968 7.1482C20.0234 5.90314 19.7146 4.67359 19.1022 3.58637C18.4898 2.49915 17.596 1.59363 16.513 0.963205C15.43 0.33278 14.197 0.000280883 12.9412 1.5655e-06Z" fill="#F58634"/>
</g>
<g clip-path="url(#clip1_1_368)">
<path d="M10.9047 10.9124L13.6029 8.23724C13.9328 7.90854 14.1179 7.4637 14.1179 6.99999C14.1179 6.53629 13.9328 6.09144 13.6029 5.76274L10.9047 3.08758C10.7938 2.98132 10.6452 2.92252 10.4909 2.92385C10.3367 2.92518 10.1892 2.98653 10.0801 3.09468C9.97104 3.20284 9.90918 3.34914 9.90784 3.50209C9.9065 3.65504 9.96579 3.80239 10.0729 3.91241L12.5976 6.41666H0.588235C0.432226 6.41666 0.282606 6.47812 0.17229 6.58751C0.0619746 6.69691 0 6.84528 0 6.99999C0 7.1547 0.0619746 7.30308 0.17229 7.41247C0.282606 7.52187 0.432226 7.58333 0.588235 7.58333H12.5982L10.0729 10.0876C10.0168 10.1414 9.97195 10.2058 9.94112 10.2769C9.91029 10.3481 9.89406 10.4246 9.89338 10.5021C9.8927 10.5795 9.90759 10.6564 9.93716 10.728C9.96674 10.7997 10.0104 10.8649 10.0656 10.9196C10.1209 10.9744 10.1866 11.0177 10.2589 11.0471C10.3311 11.0764 10.4086 11.0911 10.4867 11.0905C10.5648 11.0898 10.642 11.0737 10.7138 11.0431C10.7855 11.0126 10.8504 10.9681 10.9047 10.9124Z" fill="#F58634"/>
</g>
<defs>
<clipPath id="clip0_1_368">
<rect width="14.1176" height="14" fill="white" transform="translate(20 14) rotate(180)"/>
</clipPath>
<clipPath id="clip1_1_368">
<rect width="14.1176" height="14" fill="white"/>
</clipPath>
</defs>
</svg>
