<svg width="20" height="14" viewBox="0 0 20 14" fill="none" xmlns="http://www.w3.org/2000/svg">
<g clip-path="url(#clip0_1_371)">
<path d="M7.05883 14C8.36266 14.0033 9.64175 13.6471 10.7532 12.9711C11.8647 12.2952 12.7648 11.3261 13.3529 10.1722C13.4183 10.035 13.4272 9.87803 13.3778 9.73447C13.3284 9.59091 13.2246 9.47208 13.0883 9.40318C12.952 9.33428 12.7941 9.32073 12.6479 9.36541C12.5017 9.41009 12.3788 9.50948 12.3053 9.6425C11.7062 10.8117 10.7274 11.7466 9.52667 12.2963C8.32598 12.846 6.97353 12.9784 5.68761 12.6722C4.4017 12.366 3.25735 11.639 2.43927 10.6086C1.62119 9.57816 1.17712 8.30443 1.17873 6.99298C1.18034 5.68154 1.62753 4.40888 2.44814 3.38045C3.26874 2.35201 4.41487 1.62779 5.70154 1.32469C6.9882 1.02158 8.34033 1.15728 9.53966 1.70987C10.739 2.26246 11.7156 3.19971 12.3118 4.37033C12.3451 4.44113 12.3923 4.50457 12.4508 4.5569C12.5093 4.60924 12.5778 4.64939 12.6522 4.67498C12.7266 4.70057 12.8055 4.71107 12.8841 4.70587C12.9627 4.70067 13.0394 4.67987 13.1097 4.6447C13.1801 4.60954 13.2426 4.56072 13.2935 4.50115C13.3445 4.44158 13.3828 4.37246 13.4063 4.29791C13.4298 4.22335 13.438 4.14488 13.4304 4.06714C13.4227 3.98939 13.3994 3.91397 13.3618 3.84533C12.7958 2.73363 11.9411 1.79178 10.8856 1.11692C9.8302 0.442069 8.61234 0.0586479 7.35765 0.00620861C6.10296 -0.0462306 4.85688 0.234211 3.74794 0.818606C2.639 1.403 1.70734 2.27019 1.04907 3.33073C0.390805 4.39126 0.0297572 5.60675 0.00317062 6.8518C-0.023416 8.09686 0.285421 9.32641 0.897827 10.4136C1.51023 11.5008 2.40403 12.4064 3.48704 13.0368C4.57004 13.6672 5.80303 13.9997 7.05883 14Z" fill="#414141" fill-opacity="0.5"/>
</g>
<g clip-path="url(#clip1_1_371)">
<path d="M9.09529 3.08759L6.39706 5.76276C6.06723 6.09146 5.88207 6.5363 5.88207 7.00001C5.88207 7.46372 6.06723 7.90856 6.39706 8.23726L9.09529 10.9124C9.20624 11.0187 9.35483 11.0775 9.50906 11.0762C9.66329 11.0748 9.81083 11.0135 9.91989 10.9053C10.029 10.7972 10.0908 10.6509 10.0922 10.4979C10.0935 10.345 10.0342 10.1976 9.92706 10.0876L7.40235 7.58334L19.4118 7.58334C19.5678 7.58334 19.7174 7.52188 19.8277 7.41249C19.938 7.30309 20 7.15472 20 7.00001C20 6.8453 19.938 6.69692 19.8277 6.58753C19.7174 6.47813 19.5678 6.41667 19.4118 6.41667L7.40176 6.41667L9.92706 3.91243C9.98324 3.85861 10.0281 3.79425 10.0589 3.72308C10.0897 3.65191 10.1059 3.57536 10.1066 3.49791C10.1073 3.42045 10.0924 3.34364 10.0628 3.27195C10.0333 3.20026 9.98958 3.13513 9.93435 3.08036C9.87912 3.02559 9.81344 2.98228 9.74115 2.95295C9.66886 2.92362 9.5914 2.90886 9.51329 2.90953C9.43519 2.9102 9.358 2.92629 9.28623 2.95687C9.21446 2.98744 9.14956 3.03188 9.09529 3.08759Z" fill="#414141" fill-opacity="0.5"/>
</g>
<defs>
<clipPath id="clip0_1_371">
<rect width="14.1176" height="14" fill="white"/>
</clipPath>
<clipPath id="clip1_1_371">
<rect width="14.1176" height="14" fill="white" transform="translate(20 14) rotate(180)"/>
</clipPath>
</defs>
</svg>
