<svg width="24" height="24" viewBox="0 0 24 24" fill="none" xmlns="http://www.w3.org/2000/svg">
<g clip-path="url(#clip0_1_243)">
<path d="M20 0.00999879C16.188 0.00999879 11.875 2.048 8.461 5.461C5.02771 8.86483 2.26683 12.8854 0.323 17.312C0.0214869 18.0126 -0.0720828 18.7852 0.0534558 19.5375C0.178994 20.2899 0.51834 20.9902 1.031 21.555L15.293 7.293C15.3852 7.19749 15.4956 7.12131 15.6176 7.0689C15.7396 7.01649 15.8708 6.9889 16.0036 6.98775C16.1364 6.98659 16.2681 7.0119 16.391 7.06218C16.5138 7.11246 16.6255 7.18671 16.7194 7.2806C16.8133 7.3745 16.8875 7.48615 16.9378 7.60904C16.9881 7.73194 17.0134 7.86362 17.0123 7.9964C17.0111 8.12918 16.9835 8.2604 16.9311 8.3824C16.8787 8.50441 16.8025 8.61475 16.707 8.707L2.449 22.965C3.01043 23.4809 3.70945 23.8228 4.46132 23.9494C5.21319 24.0759 5.98563 23.9816 6.685 23.678C11.1144 21.737 15.1364 18.9754 18.539 15.539C21.952 12.126 23.99 7.813 23.99 4C24.0462 3.46221 23.9817 2.91865 23.801 2.40899C23.6204 1.89934 23.3283 1.43644 22.9459 1.0541C22.5636 0.671748 22.1007 0.379596 21.591 0.198962C21.0813 0.0183275 20.5378 -0.0462307 20 0.00999879Z" fill="#9CCB48"/>
</g>
<defs>
<clipPath id="clip0_1_243">
<rect width="24" height="24" fill="white"/>
</clipPath>
</defs>
</svg>
