<svg width="24" height="24" viewBox="0 0 24 24" fill="none" xmlns="http://www.w3.org/2000/svg">
<g clip-path="url(#clip0_1_177)">
<path d="M20 0.00998734C16.188 0.00998734 11.875 2.04799 8.46102 5.46099C5.02773 8.86482 2.26686 12.8854 0.323022 17.312C0.0215098 18.0126 -0.0720599 18.7852 0.0534787 19.5375C0.179017 20.2899 0.518363 20.9902 1.03102 21.555L15.293 7.29299C15.3853 7.19748 15.4956 7.12129 15.6176 7.06889C15.7396 7.01648 15.8708 6.98889 16.0036 6.98774C16.1364 6.98658 16.2681 7.01188 16.391 7.06217C16.5139 7.11245 16.6255 7.1867 16.7194 7.28059C16.8133 7.37448 16.8876 7.48614 16.9378 7.60903C16.9881 7.73193 17.0134 7.86361 17.0123 7.99639C17.0111 8.12917 16.9835 8.26039 16.9311 8.38239C16.8787 8.5044 16.8025 8.61474 16.707 8.70699L2.44902 22.965C3.01045 23.4809 3.70947 23.8228 4.46134 23.9493C5.21321 24.0759 5.98565 23.9816 6.68502 23.678C11.1144 21.737 15.1365 18.9754 18.539 15.539C21.952 12.126 23.99 7.81299 23.99 3.99999C24.0463 3.4622 23.9817 2.91864 23.8011 2.40898C23.6204 1.89933 23.3283 1.43643 22.9459 1.05408C22.5636 0.671737 22.1007 0.379585 21.591 0.19895C21.0814 0.0183161 20.5378 -0.0462422 20 0.00998734Z" fill="#F58634"/>
</g>
<defs>
<clipPath id="clip0_1_177">
<rect width="24" height="24" fill="white"/>
</clipPath>
</defs>
</svg>
