<svg width="24" height="24" viewBox="0 0 24 24" fill="none" xmlns="http://www.w3.org/2000/svg">
<g clip-path="url(#clip0_1_256)">
<path d="M20 0.00999879C16.188 0.00999879 11.875 2.048 8.46101 5.461C5.02771 8.86483 2.26684 12.8854 0.323007 17.312C0.0214945 18.0126 -0.0720751 18.7852 0.0534635 19.5375C0.179002 20.2899 0.518347 20.9902 1.03101 21.555L15.293 7.293C15.3853 7.19749 15.4956 7.12131 15.6176 7.0689C15.7396 7.01649 15.8708 6.9889 16.0036 6.98775C16.1364 6.98659 16.2681 7.0119 16.391 7.06218C16.5139 7.11246 16.6255 7.18671 16.7194 7.2806C16.8133 7.3745 16.8875 7.48615 16.9378 7.60904C16.9881 7.73194 17.0134 7.86362 17.0123 7.9964C17.0111 8.12918 16.9835 8.2604 16.9311 8.3824C16.8787 8.50441 16.8025 8.61475 16.707 8.707L2.44901 22.965C3.01044 23.4809 3.70946 23.8228 4.46133 23.9494C5.2132 24.0759 5.98563 23.9816 6.68501 23.678C11.1144 21.737 15.1364 18.9754 18.539 15.539C21.952 12.126 23.99 7.813 23.99 4C24.0462 3.46221 23.9817 2.91865 23.801 2.40899C23.6204 1.89934 23.3283 1.43644 22.9459 1.0541C22.5636 0.671748 22.1007 0.379596 21.591 0.198962C21.0814 0.0183275 20.5378 -0.0462307 20 0.00999879Z" fill="#9CCB48"/>
</g>
<defs>
<clipPath id="clip0_1_256">
<rect width="24" height="24" fill="white"/>
</clipPath>
</defs>
</svg>
