<svg width="24" height="24" viewBox="0 0 24 24" fill="none" xmlns="http://www.w3.org/2000/svg">
<g clip-path="url(#clip0_1_195)">
<path d="M20 0.00998734C16.188 0.00998734 11.875 2.04799 8.461 5.46099C5.02771 8.86482 2.26683 12.8854 0.323 17.312C0.0214874 18.0126 -0.0720823 18.7852 0.0534563 19.5375C0.178995 20.2899 0.51834 20.9902 1.031 21.555L15.293 7.29299C15.3852 7.19748 15.4956 7.12129 15.6176 7.06889C15.7396 7.01648 15.8708 6.98889 16.0036 6.98774C16.1364 6.98658 16.2681 7.01188 16.391 7.06217C16.5138 7.11245 16.6255 7.1867 16.7194 7.28059C16.8133 7.37448 16.8875 7.48614 16.9378 7.60903C16.9881 7.73193 17.0134 7.86361 17.0123 7.99639C17.0111 8.12917 16.9835 8.26039 16.9311 8.38239C16.8787 8.5044 16.8025 8.61474 16.707 8.70699L2.449 22.965C3.01043 23.4809 3.70945 23.8228 4.46132 23.9493C5.21319 24.0759 5.98563 23.9816 6.685 23.678C11.1144 21.737 15.1364 18.9754 18.539 15.539C21.952 12.126 23.99 7.81299 23.99 3.99999C24.0462 3.4622 23.9817 2.91864 23.801 2.40898C23.6204 1.89933 23.3283 1.43643 22.9459 1.05408C22.5636 0.671737 22.1007 0.379585 21.591 0.19895C21.0813 0.0183161 20.5378 -0.0462422 20 0.00998734Z" fill="#F58634"/>
</g>
<defs>
<clipPath id="clip0_1_195">
<rect width="24" height="24" fill="white"/>
</clipPath>
</defs>
</svg>
