<svg width="74" height="74" viewBox="0 0 74 74" fill="none" xmlns="http://www.w3.org/2000/svg">
<circle cx="37" cy="37" r="37" fill="#002020"/>
<circle cx="37" cy="37" r="23.9412" fill="#003333"/>
<g clip-path="url(#clip0_1_296)">
<path d="M46.2413 32.6133L35.8617 25.0022C35.051 24.4085 34.0917 24.051 33.0903 23.9691C32.0888 23.8873 31.0842 24.0844 30.1878 24.5385C29.2915 24.9926 28.5384 25.6861 28.0121 26.5421C27.4857 27.398 27.2067 28.383 27.2059 29.3878V44.6176C27.2043 45.6234 27.4819 46.6099 28.0077 47.4673C28.5336 48.3247 29.287 49.0194 30.1843 49.474C31.0815 49.9286 32.0872 50.1253 33.0896 50.0421C34.092 49.959 35.0516 49.5994 35.8617 49.0032L46.2413 41.3921C46.93 40.8867 47.49 40.2262 47.8761 39.4641C48.2621 38.702 48.4632 37.8597 48.4632 37.0054C48.4632 36.1511 48.2621 35.3089 47.8761 34.5468C47.49 33.7847 46.93 33.1242 46.2413 32.6187V32.6133Z" fill="#9CCB48"/>
</g>
<defs>
<clipPath id="clip0_1_296">
<rect width="26.1176" height="26.1176" fill="white" transform="translate(23.9412 23.9412)"/>
</clipPath>
</defs>
</svg>
