<svg width="48" height="48" viewBox="0 0 48 48" fill="none" xmlns="http://www.w3.org/2000/svg">
<circle cx="24" cy="24" r="24" fill="#EBF5DA"/>
<circle cx="24" cy="24" r="16" fill="#9CCB48"/>
<g clip-path="url(#clip0_1_163)">
<path d="M29.6613 21.3127L23.3027 16.65C22.806 16.2864 22.2184 16.0673 21.6048 16.0172C20.9913 15.967 20.3759 16.0878 19.8268 16.366C19.2777 16.6442 18.8163 17.069 18.4939 17.5934C18.1715 18.1177 18.0005 18.7211 18 19.3367V28.6667C17.999 29.2829 18.1691 29.8872 18.4912 30.4125C18.8134 30.9377 19.275 31.3633 19.8246 31.6418C20.3742 31.9203 20.9904 32.0408 21.6045 31.9898C22.2185 31.9389 22.8064 31.7186 23.3027 31.3534L29.6613 26.6907C30.0833 26.3811 30.4263 25.9765 30.6628 25.5096C30.8993 25.0427 31.0225 24.5267 31.0225 24.0034C31.0225 23.48 30.8993 22.964 30.6628 22.4972C30.4263 22.0303 30.0833 21.6257 29.6613 21.316V21.3127Z" fill="white"/>
</g>
<defs>
<clipPath id="clip0_1_163">
<rect width="16" height="16" fill="white" transform="translate(16 16)"/>
</clipPath>
</defs>
</svg>
