<svg width="17" height="16" viewBox="0 0 17 16" fill="none" xmlns="http://www.w3.org/2000/svg">
<path d="M8.50101 0.000976562C4.08267 0.000976562 0.501007 3.58264 0.501007 8.00098C0.501007 12.4193 4.08267 16.001 8.50101 16.001C12.9193 16.001 16.501 12.4193 16.501 8.00098C16.501 3.58264 12.9193 0.000976562 8.50101 0.000976562ZM6.54267 11.3168H4.92267V6.10348H6.54267V11.3168ZM5.72267 5.46348C5.21101 5.46348 4.88017 5.10098 4.88017 4.65264C4.88017 4.19514 5.22101 3.84348 5.74351 3.84348C6.26601 3.84348 6.58601 4.19514 6.59601 4.65264C6.59601 5.10098 6.26601 5.46348 5.72267 5.46348ZM12.4593 11.3168H10.8393V8.42764C10.8393 7.75514 10.6043 7.29848 10.0185 7.29848C9.57101 7.29848 9.30517 7.60764 9.18767 7.90514C9.14434 8.01098 9.13351 8.16098 9.13351 8.31014V11.316H7.51267V7.76598C7.51267 7.11514 7.49184 6.57098 7.47017 6.10264H8.87767L8.95184 6.82681H8.98434C9.19767 6.48681 9.72017 5.98514 10.5943 5.98514C11.6602 5.98514 12.4593 6.69931 12.4593 8.23431V11.3168Z" fill="white"/>
</svg>
