<svg width="17" height="16" viewBox="0 0 17 16" fill="none" xmlns="http://www.w3.org/2000/svg">
<path d="M8.50101 0.000976562C4.08315 0.000976562 0.501007 3.58312 0.501007 8.00098C0.501007 12.4188 4.08315 16.001 8.50101 16.001C12.9189 16.001 16.501 12.4188 16.501 8.00098C16.501 3.58312 12.9189 0.000976562 8.50101 0.000976562ZM12.3457 6.03133C12.351 6.11526 12.351 6.20276 12.351 6.28848C12.351 8.90991 10.3546 11.9295 6.70636 11.9295C5.58136 11.9295 4.53851 11.6028 3.65994 11.0403C3.82065 11.0581 3.97422 11.0653 4.13851 11.0653C5.06708 11.0653 5.92065 10.751 6.60101 10.2188C5.72958 10.201 4.99744 9.62955 4.74744 8.84383C5.05279 8.88848 5.32779 8.88848 5.64208 8.80812C5.19338 8.71696 4.79007 8.47327 4.50068 8.11845C4.21129 7.76363 4.05366 7.31956 4.05458 6.86169V6.83669C4.31708 6.98491 4.62601 7.07598 4.94922 7.08848C4.67751 6.9074 4.45468 6.66207 4.30049 6.37424C4.1463 6.08642 4.06551 5.765 4.06529 5.43848C4.06529 5.06883 4.16172 4.73133 4.33494 4.43848C4.83298 5.05158 5.45445 5.55302 6.15898 5.9102C6.8635 6.26739 7.63531 6.47232 8.42422 6.51169C8.14386 5.16348 9.15101 4.07241 10.3617 4.07241C10.9332 4.07241 11.4474 4.31169 11.8099 4.69741C12.2582 4.61348 12.6867 4.44562 13.0689 4.22062C12.9207 4.67955 12.6099 5.06705 12.1974 5.31169C12.5974 5.26883 12.9832 5.15812 13.3403 5.00276C13.0707 5.39919 12.7332 5.75098 12.3457 6.03133Z" fill="white"/>
</svg>
